# AST/ASF file generated using VICON BodyLanguage
# -----------------------------------------------
:version 1.10
:name VICON
:units
  mass 1.0
  length 0.45
  angle deg
:documentation
   .ast/.asf automatically generated from VICON data using
   VICON BodyBuilder and BodyLanguage model FoxedUp or BRILLIANT.MOD
:root
   order TX TY TZ RX RY RZ
   axis XYZ
   position 0 0 0  
   orientation 0 0 0 
:bonedata
  begin
     id 1 
     name lhipjoint
     direction 0.707368 -0.647095 0.284426 
     length 2.60678 
     axis 0 0 0  XYZ
  end
  begin
     id 2 
     name lfemur
     direction 0.34202 -0.939693 0  
     length 6.63812  
     axis 0 0 20  XYZ
    dof rx ry rz
    limits (-160.0 20.0)
           (-70.0 70.0)
           (-60.0 70.0)
  end
  begin
     id 3 
     name ltibia
     direction 0.34202 -0.939693 0   
     length 7.51178   
     axis 0 0 20   XYZ
    dof rx
    limits (-10.0 170.0)
  end
  begin
     id 4 
     name lfoot
     direction 0.121251 -0.333133 0.935051   
     length 1.83716   
     axis -90 7.62852e-016 20   XYZ
    dof rx rz
    limits (-45.0 90.0)
           (-70.0 20.0)
  end
  begin
     id 5 
     name ltoes
     direction 1.53611e-011 -4.21962e-011 1   
     length 0.916133   
     axis -90 7.62852e-016 20   XYZ
    dof rx
    limits (-90.0 20.0)
  end
  begin
     id 6 
     name rhipjoint
     direction -0.692419 -0.660507 0.290321   
     length 2.55385  
     axis 0 0 0  XYZ 
  end
  begin
     id 7 
     name rfemur
     direction -0.34202 -0.939693 0   
     length 7.29079   
     axis 0 0 -20   XYZ
    dof rx ry rz
    limits (-160.0 20.0)
           (-70.0 70.0)
           (-70.0 60.0)
  end
  begin
     id 8 
     name rtibia
     direction -0.34202 -0.939693 0   
     length 7.47143   
     axis 0 0 -20   XYZ
    dof rx
    limits (-10.0 170.0)
 end
 begin
     id 9 
     name rfoot
     direction -0.119907 -0.329441 0.936532   
     length 1.79439  
     axis -90 -7.62852e-016 -20   XYZ
    dof rx rz
    limits (-45.0 90.0)
           (-20.0 70.0)
  end
  begin
     id 10 
     name rtoes
     direction -1.53571e-011 -4.21961e-011 1   
     length 0.896039   
     axis -90 -7.62852e-016 -20   XYZ
    dof rx
    limits (-90.0 20.0)
  end
  begin
     id 11 
     name lowerback
     direction 0.0367721 0.992912 -0.113016   
     length 1.73542   
     axis 0 0 0   XYZ
    dof rx ry rz
    limits (-20.0 45.0)
           (-30.0 30.0)
           (-30.0 30.0)
  end
  begin
     id 12 
     name upperback
     direction -0.000314626 0.990678 0.136227   
     length 1.7514   
     axis 0 0 0   XYZ
    dof rx ry rz
    limits (-20.0 45.0)
           (-30.0 30.0)
           (-30.0 30.0)
  end
  begin
     id 13 
     name thorax
     direction -0.0226159 0.981151 0.191917   
     length 1.71471   
     axis 0 0 0   XYZ
    dof rx ry rz
    limits (-20.0 45.0)
           (-30.0 30.0)
           (-30.0 30.0)
  end
  begin
     id 14 
     name lowerneck
     direction 0.0219333 0.998071 0.0580739   
     length 1.65882   
     axis 0 0 0   XYZ
    dof rx ry rz
    limits (-20.0 45.0)
           (-30.0 30.0)
           (-30.0 30.0)
  end
  begin
     id 15 
     name upperneck
     direction 0.0384529 0.980058 -0.194957   
     length 1.6612   
     axis 0 0 0   XYZ
    dof rx ry rz
    limits (-20.0 45.0)
           (-30.0 30.0)
           (-30.0 30.0)
  end
  begin
     id 16
     name head
     direction 0.00592123 0.997421 -0.0715234  
     length 1.68077  
     axis 0 0 0   XYZ
    dof rx ry rz
    limits (-20.0 45.0)
           (-30.0 30.0)
           (-30.0 30.0)
  end
  begin
     id 17 
     name lclavicle
     direction 0.904803 0.417826 0.0821728  
     length 3.42227  
     axis 0 0 0   XYZ
    dof ry rz
    limits (-20.0 10.0)
           (0.0 20.0)
  end
  begin
     id 18 
     name lhumerus
     direction 1 -4.48965e-011 -2.68786e-027   
     length 5.11878   
     axis -180 -30 -90   XYZ
    dof rx ry rz
    limits (-60.0 90.0)
           (-90.0 90.0)
           (-90.0 90.0)
  end
  begin
     id 19
     name lradius
     direction 1 -4.48965e-011 2.61168e-028   
     length 3.59971   
     axis -180 -30 -90   XYZ
    dof rx
    limits (-10.0 170.0)
  end
  begin
     id 20
     name lwrist
     direction 1 -4.48965e-011 1.58672e-027   
     length 1.79985   
     axis -1.65735e-015 90 90   XYZ
    dof ry
    limits (-180.0 0.0)
 end
  begin
     id 21 
     name lhand
     direction 1 -4.48942e-011 3.17344e-027   
     length 0.62877   
     axis -2.02492e-015 90 90   XYZ
    dof rx rz
    limits (-90.0 90.0)
           (-45.0 45.0)
  end
  begin
     id 22 
     name lfingers
     direction 1 -4.49011e-011 6.34687e-027   
     length 0.506931   
     axis -4.04985e-015 90 90   XYZ
    dof rx
    limits (0.0 90.0)
  end
  begin
     id 23
     name lthumb
     direction 0.707107 -6.34982e-011 0.707107   
     length 0.727854   
     axis -90 45 2.85299e-015   XYZ
    dof rx rz
    limits (-45.0 45.0)
           (-45.0 45.0)
  end
  begin
     id 24 
     name rclavicle
     direction -0.945647 0.32488 0.0143075   
     length 3.52737  
     axis 0 0 0   XYZ 
    dof ry rz
    limits (-10.0 20.0)
           (-20.0 0.0)
  end
  begin
     id 25 
     name rhumerus
     direction -1 -4.48962e-011 1.92182e-027  
     length 5.4902   
     axis -180 30 90   XYZ
    dof rx ry rz
    limits (-90.0 60.0)
           (-90.0 90.0)
           (-90.0 90.0)
  end
  begin
     id 26 
     name rradius
     direction -1 -4.48967e-011 -5.97193e-028   
     length 3.20659   
     axis -180 30 90   XYZ
    dof rx
    limits (-10.0 170.0)
  end
  begin
     id 27 
     name rwrist
     direction -1 -4.48964e-011 1.58672e-027   
     length 1.6033   
     axis -1.65735e-015 -90 -90   XYZ
    dof ry
    limits (-180.0 0.0)
  end
  begin
     id 28
     name rhand
     direction -1 -4.49006e-011 3.17344e-027   
     length 0.691885   
     axis -2.02492e-015 -90 -90   XYZ
    dof rx rz
    limits (-90.0 90.0)
           (-45.0 45.0)
  end
  begin
     id 29
     name rfingers
     direction -1 -4.48908e-011 6.34687e-027   
     length 0.557815   
     axis -4.04985e-015 -90 -90   XYZ
    dof rx
    limits (0.0 90.0)
  end
  begin
     id 30
     name rthumb
     direction -0.707107 -6.34999e-011 0.707107   
     length 0.800915   
     axis -90 -45 -2.85299e-015   XYZ
    dof rx rz
    limits (-45.0 45.0)
           (-45.0 45.0)
  end
:hierarchy
  begin
    root lhipjoint rhipjoint lowerback
    lhipjoint lfemur
    lfemur ltibia
    ltibia lfoot
    lfoot ltoes
    rhipjoint rfemur
    rfemur rtibia
    rtibia rfoot
    rfoot rtoes
    lowerback upperback
    upperback thorax
    thorax lowerneck lclavicle rclavicle
    lowerneck upperneck
    upperneck head
    lclavicle lhumerus
    lhumerus lradius
    lradius lwrist
    lwrist lhand lthumb
    lhand lfingers
    rclavicle rhumerus
    rhumerus rradius
    rradius rwrist
    rwrist rhand rthumb
    rhand rfingers
  end

#!OML:ASF I:\Actors\actors\Patient Classification 1\Patient 1\Session 1\Subject1.ASF
:FULLY-SPECIFIED
:DEGREES
1
root 0.18044 17.4648 7.96364 8.06954 3.03047 -8.41599
lowerback 1.89116 -0.888162 3.58093
upperback -10.091 -0.67859 2.33762
thorax -11.9201 -0.526265 0.612808
lowerneck 1.51479 -15.3195 -12.9636
upperneck 10.908 -22.0216 12.0248
head 5.82187 -10.9185 4.23766
rclavicle 1.31198e-014 -1.78906e-014
rhumerus -53.0358 -34.8905 -53.4237
rradius 21.4298
rwrist 57.9549
rhand 5.75808 -33.7769
rfingers 7.12502
rthumb 31.0928 -61.1607
lclavicle 1.31198e-014 -1.78906e-014
lhumerus -45.8847 25.3886 74.8909
lradius 23.0395
lwrist -28.1347
lhand -12.1888 -13.11
lfingers 7.12502
lthumb 13.875 16.4071
rfemur -6.13749 23.1521 22.3794
rtibia 5.91556
rfoot -11.6371 -23.4667
rtoes -1.6557
lfemur 0.844094 -41.7223 -9.43477
ltibia -3.29099
lfoot -15.1701 48.6165
ltoes 8.02272
2
root 0.196048 17.4634 7.95482 8.09802 3.01297 -8.39247
lowerback 1.89657 -0.819052 3.61999
upperback -10.0377 -0.586858 2.29867
thorax -11.8608 -0.487098 0.536054
lowerneck 1.94102 -15.2908 -13.694
upperneck 10.4501 -22.1534 13.2878
head 5.85483 -10.9832 4.72919
rclavicle -2.10712e-014 1.31198e-014
rhumerus -52.8491 -34.3202 -54.0411
rradius 21.6571
rwrist 56.573
rhand 5.67184 -33.7505
rfingers 7.12502
rthumb 31.0106 -61.1499
lclavicle -2.10712e-014 1.31198e-014
lhumerus -45.7706 25.3945 74.6818
lradius 22.6298
lwrist -28.6117
lhand -12.0459 -13.0176
lfingers 7.12502
lthumb 14.0127 16.4901
rfemur -6.13864 23.4677 22.2791
rtibia 5.84314
rfoot -11.8266 -23.702
rtoes -0.634462
lfemur 0.763456 -41.4763 -9.42069
ltibia -3.4057
lfoot -14.5134 48.4572
ltoes 7.28656
3
root 0.21007 17.4624 7.94887 8.13879 2.93853 -8.41815
lowerback 1.87877 -0.751026 3.69409
upperback -10.0236 -0.490998 2.28758
thorax -11.8332 -0.448043 0.470347
lowerneck 1.67636 -15.3389 -14.1718
upperneck 11.0062 -22.3016 13.5619
head 6.18054 -11.0385 4.80977
rclavicle -1.58034e-014 3.77691e-014
rhumerus -52.7173 -33.8414 -54.5218
rradius 21.8719
rwrist 55.6693
rhand 5.96071 -33.8833
rfingers 7.12502
rthumb 31.2859 -61.2299
lclavicle -1.58034e-014 3.77691e-014
lhumerus -45.7952 25.3513 74.3883
lradius 22.2171
lwrist -29.0566
lhand -12.2405 -12.9271
lfingers 7.12502
lthumb 13.8252 16.5935
rfemur -6.1551 23.7098 22.2333
rtibia 5.76144
rfoot -11.9237 -23.8399
rtoes -0.105138
lfemur 0.749364 -41.414 -9.38282
ltibia -3.50738
lfoot -14.6983 48.4213
ltoes 7.80431
4
root 0.223607 17.4611 7.94452 8.20654 2.76288 -8.50377
lowerback 1.87612 -0.677824 3.86345
upperback -10.0619 -0.376827 2.28607
thorax -11.8773 -0.409642 0.361813
lowerneck 1.45619 -15.3475 -14.3138
upperneck 11.4604 -22.3206 13.4012
head 6.3603 -11.0417 4.74541
rclavicle -1.3418e-014 9.54166e-015
rhumerus -52.6082 -33.3831 -54.9707
rradius 22.0312
rwrist 55.1616
rhand 6.12692 -33.9727
rfingers 7.12502
rthumb 31.4443 -61.2886
lclavicle -1.3418e-014 9.54166e-015
lhumerus -46.0307 25.4924 73.8037
lradius 21.8115
lwrist -29.8112
lhand -12.6553 -13.0491
lfingers 7.12502
lthumb 13.4255 16.4983
rfemur -6.23152 23.8148 22.2374
rtibia 5.69767
rfoot -11.8382 -23.7959
rtoes -0.428384
lfemur 0.783191 -41.5241 -9.31823
ltibia -3.59194
lfoot -15.3029 48.6048
ltoes 8.79094
5
root 0.233894 17.4632 7.94786 8.44859 2.55611 -8.3349
lowerback 1.58145 -0.578511 3.73746
upperback -10.098 -0.278603 2.17612
thorax -11.7327 -0.355986 0.297115
lowerneck 1.3634 -15.3602 -14.1549
upperneck 11.5425 -22.3392 13.3866
head 6.38442 -11.0396 4.70909
rclavicle 7.85199e-015 -8.34896e-015
rhumerus -52.4608 -33.1029 -55.4661
rradius 22.0665
rwrist 54.7838
rhand 5.83542 -33.9417
rfingers 7.12502
rthumb 31.1665 -61.3113
lclavicle 7.85199e-015 -8.34896e-015
lhumerus -46.1224 25.2407 73.4188
lradius 21.4715
lwrist -30.3333
lhand -13.317 -12.9541
lfingers 7.12502
lthumb 12.7876 16.6343
rfemur -6.45313 23.8297 21.8749
rtibia 5.51082
rfoot -11.715 -23.74
rtoes -0.598496
lfemur 0.667865 -41.8044 -9.46714
ltibia -3.69495
lfoot -15.7621 49.0304
ltoes 9.50991
6
root 0.239102 17.4701 7.95823 8.82461 2.34299 -7.93825
lowerback 1.17589 -0.431257 3.35416
upperback -10.2378 -0.148955 1.92182
thorax -11.6355 -0.272309 0.2183
lowerneck 1.36185 -15.378 -13.896
upperneck 11.669 -22.3785 13.3338
head 6.39432 -11.0495 4.65341
rclavicle -1.04362e-014 3.33958e-014
rhumerus -52.4673 -32.8899 -55.9461
rradius 21.966
rwrist 54.2738
rhand 5.5564 -33.8398
rfingers 7.12502
rthumb 30.9005 -61.2602
lclavicle -1.04362e-014 3.33958e-014
lhumerus -46.1537 24.0444 73.4774
lradius 21.2729
lwrist -30.0973
lhand -14.082 -12.3422
lfingers 7.12502
lthumb 12.05 17.2909
rfemur -6.78162 23.9049 21.2006
rtibia 5.21068
rfoot -11.6131 -23.8103
rtoes -0.300413
lfemur 0.386795 -42.1762 -9.77127
ltibia -3.78277
lfoot -15.9817 49.5894
ltoes 9.85992
7
root 0.246719 17.4746 7.95958 9.0743 2.07784 -7.74901
lowerback 1.21487 -0.293716 3.28733
upperback -10.5134 0.0227578 1.70286
thorax -11.975 -0.20084 0.00544499
lowerneck 1.44418 -15.3546 -13.7331
upperneck 11.9828 -22.3868 13.2275
head 6.4497 -11.0519 4.60062
rclavicle 2.28602e-015 -2.3059e-014
rhumerus -52.5944 -32.3059 -56.6097
rradius 22.0569
rwrist 53.5757
rhand 5.48977 -33.7574
rfingers 7.12502
rthumb 30.837 -61.1898
lclavicle 2.28602e-015 -2.3059e-014
lhumerus -46.5902 23.2003 73.0606
lradius 21.0145
lwrist -30.4
lhand -14.6923 -12.1742
lfingers 7.12502
lthumb 11.4615 17.4925
rfemur -7.067 24.0324 20.7974
rtibia 5.07843
rfoot -11.5137 -23.7844
rtoes -0.0474686
lfemur 0.164517 -42.3124 -9.88725
ltibia -3.7788
lfoot -16.168 49.9401
ltoes 10.023
8
root 0.258564 17.4761 7.95403 9.22877 1.81145 -7.65744
lowerback 1.29837 -0.224696 3.32464
upperback -10.6687 0.117945 1.60136
thorax -12.2059 -0.168379 -0.132792
lowerneck 1.44122 -15.3056 -13.5905
upperneck 12.1237 -22.3221 13.1097
head 6.45529 -11.0186 4.55371
rclavicle -7.15625e-015 2.18663e-014
rhumerus -52.3014 -31.4864 -57.6916
rradius 22.3356
rwrist 52.7437
rhand 5.48416 -33.9384
rfingers 7.12502
rthumb 30.8317 -61.3718
lclavicle -7.15625e-015 2.18663e-014
lhumerus -46.9682 23.0468 72.4674
lradius 20.8513
lwrist -31.6012
lhand -14.8163 -11.1806
lfingers 7.12502
lthumb 11.3419 18.4927
rfemur -7.2724 24.13 20.5345
rtibia 5.05399
rfoot -11.4994 -23.6322
rtoes 0.318848
lfemur -0.00684236 -42.2412 -9.9571
ltibia -3.69001
lfoot -16.5073 50.059
ltoes 10.2273
9
root 0.269184 17.4783 7.95084 9.35461 1.55449 -7.46287
lowerback 1.1976 -0.185538 3.17056
upperback -10.6808 0.148122 1.54309
thorax -12.1547 -0.142127 -0.114176
lowerneck 1.39491 -15.2348 -13.5741
upperneck 12.1491 -22.2247 13.1293
head 6.45786 -10.9677 4.56663
rclavicle 5.1684e-015 -2.90226e-014
rhumerus -51.6498 -30.6266 -58.9978
rradius 22.5964
rwrist 51.8384
rhand 5.43796 -34.0555
rfingers 7.12502
rthumb 30.7876 -61.4972
lclavicle 5.1684e-015 -2.90226e-014
lhumerus -47.2661 23.4606 71.5164
lradius 20.2837
lwrist -32.6313
lhand -15.4411 -12.414
lfingers 7.12502
lthumb 10.7393 17.2915
rfemur -7.38312 24.2377 20.184
rtibia 4.95252
rfoot -11.4687 -23.5254
rtoes 0.456049
lfemur -0.114935 -42.0982 -10.1972
ltibia -3.6047
lfoot -16.933 50.1014
ltoes 10.536
10
root 0.277157 17.4808 7.94756 9.40247 1.27823 -7.347
lowerback 1.19078 -0.189329 3.04173
upperback -10.6787 0.134934 1.57717
thorax -12.1472 -0.133981 -0.00399088
lowerneck 1.32634 -15.1085 -13.7714
upperneck 12.2522 -22.0662 13.2233
head 6.51318 -10.89 4.63271
rclavicle 1.23246e-014 2.78299e-015
rhumerus -50.9106 -29.5952 -60.3383
rradius 22.8522
rwrist 51.0382
rhand 5.31029 -33.8754
rfingers 7.12502
rthumb 30.6659 -61.34
lclavicle 1.23246e-014 2.78299e-015
lhumerus -47.559 23.631 70.9296
lradius 20.0533
lwrist -33.3528
lhand -15.4651 -12.1912
lfingers 7.12502
lthumb 10.7162 17.5155
rfemur -7.42279 24.4142 19.9753
rtibia 4.86366
rfoot -11.3994 -23.4865
rtoes 0.291473
lfemur -0.0685403 -42.0286 -10.4182
ltibia -3.57534
lfoot -17.5354 50.1815
ltoes 11.24
11
root 0.283461 17.4819 7.94374 9.44968 0.986868 -7.3439
lowerback 1.19985 -0.227682 2.99559
upperback -10.6775 0.0903178 1.69876
thorax -12.1526 -0.143928 0.158854
lowerneck 1.23925 -14.9735 -13.9735
upperneck 12.2605 -21.8734 13.2776
head 6.53211 -10.7984 4.69341
rclavicle -7.65321e-015 7.15625e-015
rhumerus -50.1027 -28.4324 -61.7083
rradius 23.143
rwrist 50.2495
rhand 5.29812 -33.8195
rfingers 7.12502
rthumb 30.6543 -61.2863
lclavicle -7.65321e-015 7.15625e-015
lhumerus -47.9279 23.8933 70.375
lradius 19.9626
lwrist -34.0265
lhand -15.2648 -11.5919
lfingers 7.12502
lthumb 10.9094 18.1047
rfemur -7.53626 24.5991 19.8904
rtibia 4.86999
rfoot -11.3543 -23.4297
rtoes 0.181231
lfemur 0.00247178 -42.0961 -10.495
ltibia -3.57689
lfoot -18.2944 50.3669
ltoes 12.1924
12
root 0.292092 17.4768 7.93818 9.41175 0.753063 -7.66022
lowerback 1.30303 -0.216574 3.38503
upperback -10.6426 0.150372 1.81864
thorax -12.1792 -0.146199 0.0653781
lowerneck 1.13067 -14.9071 -13.9783
upperneck 12.2727 -21.7655 13.2555
head 6.53666 -10.7423 4.69296
rclavicle 7.95139e-015 -7.95139e-015
rhumerus -49.3698 -27.4033 -63.0834
rradius 23.5014
rwrist 49.239
rhand 5.36971 -33.9713
rfingers 7.12502
rthumb 30.7225 -61.4253
lclavicle 7.95139e-015 -7.95139e-015
lhumerus -48.1266 23.8 70.08
lradius 19.9825
lwrist -34.5066
lhand -14.7939 -10.4695
lfingers 7.12502
lthumb 11.3635 19.2026
rfemur -7.55513 24.6289 20.2337
rtibia 4.90428
rfoot -11.2738 -23.2176
rtoes -0.0207565
lfemur 0.170644 -41.9564 -10.2514
ltibia -3.63489
lfoot -18.6811 50.4122
ltoes 12.6169
13
root 0.303432 17.4682 7.93011 9.2383 0.619375 -8.28632
lowerback 1.58257 -0.191564 4.20741
upperback -10.5684 0.274038 1.93779
thorax -12.2726 -0.160949 -0.276646
lowerneck 0.999995 -14.881 -14.0358
upperneck 12.4177 -21.7468 13.3403
head 6.61834 -10.723 4.71408
rclavicle 1.6201e-014 -3.69739e-014
rhumerus -48.7132 -26.5026 -64.4525
rradius 23.8873
rwrist 48.1243
rhand 5.28197 -34.0514
rfingers 7.12502
rthumb 30.6389 -61.521
lclavicle 1.6201e-014 -3.69739e-014
lhumerus -48.2379 23.7409 69.6373
lradius 19.8412
lwrist -35.0301
lhand -14.395 -9.85584
lfingers 7.12502
lthumb 11.7482 19.7947
rfemur -7.36156 24.5222 21.0358
rtibia 4.91169
rfoot -11.1734 -22.9075
rtoes -0.391722
lfemur 0.48821 -41.5993 -9.74088
ltibia -3.73899
lfoot -18.6546 50.2657
ltoes 12.523
